<?xml version="1.0" encoding="utf-8"?>
<!-- Generator: Adobe Illustrator 22.0.1, SVG Export Plug-In . SVG Version: 6.00 Build 0)  -->
<svg version="1.1" id="Ebene_1" xmlns="http://www.w3.org/2000/svg" xmlns:xlink="http://www.w3.org/1999/xlink" x="0px" y="0px"
	 viewBox="0 0 716.3 308.1" style="enable-background:new 0 0 716.3 308.1;" xml:space="preserve">
<style type="text/css">
	.st0{fill:none;stroke:#000000;stroke-width:3.543310e-02;}
	.st1{fill:none;stroke:#000000;stroke-width:0.9;}
	.st2{fill:none;stroke:#1D1D1B;stroke-width:0.9;}
	.st3{fill:none;stroke:#000000;stroke-width:1.000000e-02;}
	.st4{fill:none;stroke:#1D1D1B;stroke-width:1.5;}
	.st5{fill:#FFFFFF;}
	.st6{fill:none;stroke:#000000;stroke-width:1.5;stroke-miterlimit:10;}
</style>
<g transform="translate(22.5000185, 22.5000185) ">
	<polygon class="st0" points="-4.5,-4.5 11.1,-4.5 11.1,4 26.7,4 26.7,-4.5 38,-4.5 38,4 49.4,4 49.4,-4.5 60.7,-4.5 60.7,4 72,4 
		72,-4.5 83.4,-4.5 83.4,4 94.7,4 94.7,-4.5 106.1,-4.5 106.1,4 117.4,4 117.4,-4.5 128.7,-4.5 128.7,4 140.1,4 140.1,-4.5 
		151.4,-4.5 151.4,4 162.7,4 162.7,-4.5 174.1,-4.5 174.1,4 185.4,4 185.4,-4.5 196.8,-4.5 196.8,4 208.1,4 208.1,-4.5 219.4,-4.5 
		219.4,4 235,4 235,-4.5 250.6,-4.5 250.6,12.5 242.1,12.5 242.1,29.5 250.6,29.5 250.6,40.9 242.1,40.9 242.1,52.2 250.6,52.2 
		250.6,63.5 242.1,63.5 242.1,80.5 250.6,80.5 250.6,97.5 235,97.5 235,89 219.4,89 219.4,97.5 208.1,97.5 208.1,89 196.8,89 
		196.8,97.5 185.4,97.5 185.4,89 174.1,89 174.1,97.5 162.7,97.5 162.7,89 151.4,89 151.4,97.5 140.1,97.5 140.1,89 128.7,89 
		128.7,97.5 117.4,97.5 117.4,89 106.1,89 106.1,97.5 94.7,97.5 94.7,89 83.4,89 83.4,97.5 72,97.5 72,89 60.7,89 60.7,97.5 
		49.4,97.5 49.4,89 38,89 38,97.5 26.7,97.5 26.7,89 11.1,89 11.1,97.5 -4.5,97.5 -4.5,80.5 4,80.5 4,63.5 -4.5,63.5 -4.5,52.2 
		4,52.2 4,40.9 -4.5,40.9 -4.5,29.5 4,29.5 4,12.5 -4.5,12.5 	"/>
</g>
<g transform="translate(341.3979185, 22.5000185) ">
	<polygon class="st0" points="-68.3,-4.5 -52.7,-4.5 -52.7,4 -37.1,4 -37.1,-4.5 -25.8,-4.5 -25.8,4 -14.4,4 -14.4,-4.5 -3.1,-4.5 
		-3.1,4 8.3,4 8.3,-4.5 19.6,-4.5 19.6,4 30.9,4 30.9,-4.5 42.3,-4.5 42.3,4 53.6,4 53.6,-4.5 64.9,-4.5 64.9,4 76.3,4 76.3,-4.5 
		87.6,-4.5 87.6,4 99,4 99,-4.5 110.3,-4.5 110.3,4 121.6,4 121.6,-4.5 133,-4.5 133,4 144.3,4 144.3,-4.5 155.7,-4.5 155.7,4 
		171.2,4 171.2,-4.5 186.8,-4.5 186.8,12.5 178.3,12.5 178.3,29.5 186.8,29.5 186.8,40.9 178.3,40.9 178.3,52.2 186.8,52.2 
		186.8,63.5 178.3,63.5 178.3,80.5 186.8,80.5 186.8,97.5 171.2,97.5 171.2,89 155.7,89 155.7,97.5 144.3,97.5 144.3,89 133,89 
		133,97.5 121.6,97.5 121.6,89 110.3,89 110.3,97.5 99,97.5 99,89 87.6,89 87.6,97.5 76.3,97.5 76.3,89 64.9,89 64.9,97.5 
		53.6,97.5 53.6,89 42.3,89 42.3,97.5 30.9,97.5 30.9,89 19.6,89 19.6,97.5 8.3,97.5 8.3,89 -3.1,89 -3.1,97.5 -14.4,97.5 -14.4,89 
		-25.8,89 -25.8,97.5 -37.1,97.5 -37.1,89 -52.7,89 -52.7,97.5 -68.3,97.5 -68.3,80.5 -59.8,80.5 -59.8,63.5 -68.3,63.5 -68.3,52.2 
		-59.8,52.2 -59.8,40.9 -68.3,40.9 -68.3,29.5 -59.8,29.5 -59.8,12.5 -68.3,12.5 	"/>
</g>
<g transform="translate(660.2958185, 22.5000185) ">
	<polygon class="st0" points="-123.6,-4.5 -115.1,-4.5 -115.1,4 -98,4 -98,-4.5 -86.7,-4.5 -86.7,4 -75.4,4 -75.4,-4.5 -64,-4.5 
		-64,4 -52.7,4 -52.7,-4.5 -41.4,-4.5 -41.4,4 -30,4 -30,-4.5 -18.7,-4.5 -18.7,4 -7.3,4 -7.3,-4.5 4,-4.5 4,4 21,4 21,-4.5 
		29.5,-4.5 29.5,12.5 38,12.5 38,29.5 29.5,29.5 29.5,40.9 38,40.9 38,52.2 29.5,52.2 29.5,63.5 38,63.5 38,80.5 29.5,80.5 
		29.5,97.5 21,97.5 21,89 4,89 4,97.5 -7.3,97.5 -7.3,89 -18.7,89 -18.7,97.5 -30,97.5 -30,89 -41.4,89 -41.4,97.5 -52.7,97.5 
		-52.7,89 -64,89 -64,97.5 -75.4,97.5 -75.4,89 -86.7,89 -86.7,97.5 -98,97.5 -98,89 -115.1,89 -115.1,97.5 -123.6,97.5 
		-123.6,80.5 -132.1,80.5 -132.1,63.5 -123.6,63.5 -123.6,52.2 -132.1,52.2 -132.1,40.9 -123.6,40.9 -123.6,29.5 -132.1,29.5 
		-132.1,12.5 -123.6,12.5 	"/>
</g>
<g transform="translate(660.2958185, 150.0591785) ">
	<polygon class="st0" points="-123.6,-30 -115.1,-30 -115.1,-21.5 -98,-21.5 -98,-30 -86.7,-30 -86.7,-21.5 -75.4,-21.5 -75.4,-30 
		-64,-30 -64,-21.5 -52.7,-21.5 -52.7,-30 -41.4,-30 -41.4,-21.5 -30,-21.5 -30,-30 -18.7,-30 -18.7,-21.5 -7.3,-21.5 -7.3,-30 
		4,-30 4,-21.5 21,-21.5 21,-30 29.5,-30 29.5,-13 38,-13 38,4 29.5,4 29.5,15.3 38,15.3 38,26.7 29.5,26.7 29.5,38 38,38 38,55 
		29.5,55 29.5,72 21,72 21,63.5 4,63.5 4,72 -7.3,72 -7.3,63.5 -18.7,63.5 -18.7,72 -30,72 -30,63.5 -41.4,63.5 -41.4,72 -52.7,72 
		-52.7,63.5 -64,63.5 -64,72 -75.4,72 -75.4,63.5 -86.7,63.5 -86.7,72 -98,72 -98,63.5 -115.1,63.5 -115.1,72 -123.6,72 -123.6,55 
		-132.1,55 -132.1,38 -123.6,38 -123.6,26.7 -132.1,26.7 -132.1,15.3 -123.6,15.3 -123.6,4 -132.1,4 -132.1,-13 -123.6,-13 	"/>
</g>
<g transform="translate(22.5000185, 150.0591785) ">
	<polygon class="st0" points="4,-21.5 11.1,-21.5 11.1,-30 26.7,-30 26.7,-21.5 38,-21.5 38,-30 49.4,-30 49.4,-21.5 60.7,-21.5 
		60.7,-30 72,-30 72,-21.5 83.4,-21.5 83.4,-30 94.7,-30 94.7,-21.5 106.1,-21.5 106.1,-30 117.4,-30 117.4,-21.5 128.7,-21.5 
		128.7,-30 140.1,-30 140.1,-21.5 151.4,-21.5 151.4,-30 162.7,-30 162.7,-21.5 174.1,-21.5 174.1,-30 185.4,-30 185.4,-21.5 
		196.8,-21.5 196.8,-30 208.1,-30 208.1,-21.5 219.4,-21.5 219.4,-30 235,-30 235,-21.5 242.1,-21.5 242.1,-13 250.6,-13 250.6,4 
		242.1,4 242.1,15.3 250.6,15.3 250.6,26.7 242.1,26.7 242.1,38 250.6,38 250.6,49.4 242.1,49.4 242.1,60.7 250.6,60.7 250.6,72 
		242.1,72 242.1,83.4 250.6,83.4 250.6,94.7 242.1,94.7 242.1,106.1 250.6,106.1 250.6,123.1 242.1,123.1 242.1,131.6 235,131.6 
		235,140.1 219.4,140.1 219.4,131.6 208.1,131.6 208.1,140.1 196.8,140.1 196.8,131.6 185.4,131.6 185.4,140.1 174.1,140.1 
		174.1,131.6 162.7,131.6 162.7,140.1 151.4,140.1 151.4,131.6 140.1,131.6 140.1,140.1 128.7,140.1 128.7,131.6 117.4,131.6 
		117.4,140.1 106.1,140.1 106.1,131.6 94.7,131.6 94.7,140.1 83.4,140.1 83.4,131.6 72,131.6 72,140.1 60.7,140.1 60.7,131.6 
		49.4,131.6 49.4,140.1 38,140.1 38,131.6 26.7,131.6 26.7,140.1 11.1,140.1 11.1,131.6 4,131.6 4,123.1 -4.5,123.1 -4.5,106.1 
		4,106.1 4,94.7 -4.5,94.7 -4.5,83.4 4,83.4 4,72 -4.5,72 -4.5,60.7 4,60.7 4,49.4 -4.5,49.4 -4.5,38 4,38 4,26.7 -4.5,26.7 
		-4.5,15.3 4,15.3 4,4 -4.5,4 -4.5,-13 4,-13 	"/>
</g>
<g transform="translate(341.3979185, 150.0591785) ">
	<polygon class="st0" points="-59.8,-21.5 -52.7,-21.5 -52.7,-30 -37.1,-30 -37.1,-21.5 -25.8,-21.5 -25.8,-30 -14.4,-30 
		-14.4,-21.5 -3.1,-21.5 -3.1,-30 8.3,-30 8.3,-21.5 19.6,-21.5 19.6,-30 30.9,-30 30.9,-21.5 42.3,-21.5 42.3,-30 53.6,-30 
		53.6,-21.5 64.9,-21.5 64.9,-30 76.3,-30 76.3,-21.5 87.6,-21.5 87.6,-30 99,-30 99,-21.5 110.3,-21.5 110.3,-30 121.6,-30 
		121.6,-21.5 133,-21.5 133,-30 144.3,-30 144.3,-21.5 155.7,-21.5 155.7,-30 171.2,-30 171.2,-21.5 178.3,-21.5 178.3,-13 
		186.8,-13 186.8,4 178.3,4 178.3,15.3 186.8,15.3 186.8,26.7 178.3,26.7 178.3,38 186.8,38 186.8,49.4 178.3,49.4 178.3,60.7 
		186.8,60.7 186.8,72 178.3,72 178.3,83.4 186.8,83.4 186.8,94.7 178.3,94.7 178.3,106.1 186.8,106.1 186.8,123.1 178.3,123.1 
		178.3,131.6 171.2,131.6 171.2,140.1 155.7,140.1 155.7,131.6 144.3,131.6 144.3,140.1 133,140.1 133,131.6 121.6,131.6 
		121.6,140.1 110.3,140.1 110.3,131.6 99,131.6 99,140.1 87.6,140.1 87.6,131.6 76.3,131.6 76.3,140.1 64.9,140.1 64.9,131.6 
		53.6,131.6 53.6,140.1 42.3,140.1 42.3,131.6 30.9,131.6 30.9,140.1 19.6,140.1 19.6,131.6 8.3,131.6 8.3,140.1 -3.1,140.1 
		-3.1,131.6 -14.4,131.6 -14.4,140.1 -25.8,140.1 -25.8,131.6 -37.1,131.6 -37.1,140.1 -52.7,140.1 -52.7,131.6 -59.8,131.6 
		-59.8,123.1 -68.3,123.1 -68.3,106.1 -59.8,106.1 -59.8,94.7 -68.3,94.7 -68.3,83.4 -59.8,83.4 -59.8,72 -68.3,72 -68.3,60.7 
		-59.8,60.7 -59.8,49.4 -68.3,49.4 -68.3,38 -59.8,38 -59.8,26.7 -68.3,26.7 -68.3,15.3 -59.8,15.3 -59.8,4 -68.3,4 -68.3,-13 
		-59.8,-13 	"/>
</g>
<path class="st1" d="M449.3,149.6"/>
<path class="st2" d="M482.1,146.9"/>
<g>
	<circle class="st3" cx="473.2" cy="150.1" r="7.1"/>
	<path class="st4" d="M466.7,140.7c1.7-1.5,4-2.5,6.6-2.5c2.5,0,4.8,0.9,6.6,2.5"/>
	<path class="st4" d="M464.8,138.6c2.3-2,5.2-3.2,8.5-3.2c3.1,0,6,1.1,8.2,3"/>
</g>
<circle class="st3" cx="46" cy="157.6" r="3.5"/>
<circle class="st3" cx="46" cy="258.2" r="3.5"/>
<circle class="st3" cx="46" cy="157.6" r="3.5"/>
<circle class="st3" cx="46" cy="258.2" r="3.5"/>
<circle class="st3" cx="233.2" cy="157.6" r="3.5"/>
<circle class="st3" cx="233.2" cy="258.2" r="3.5"/>
<circle class="st3" cx="233.2" cy="157.6" r="3.5"/>
<circle class="st3" cx="233.2" cy="258.2" r="3.5"/>
<g>
	<g>
		<rect x="358.1" y="161.1" class="st5" width="113.4" height="113.4"/>
		<path class="st6" d="M471.5,264.5c0,5.5-4.5,10-10,10h-93.4c-5.5,0-10-4.5-10-10v-93.4c0-5.5,4.5-10,10-10h93.4
			c5.5,0,10,4.5,10,10V264.5z"/>
	</g>
	<g>
		<g>
			<path d="M402.9,264.2v-8.5h1.2v8.5H402.9z M403.4,260.6v-1.1h3.1c0.3,0,0.5-0.1,0.7-0.4s0.3-0.6,0.3-1s-0.1-0.7-0.3-1
				s-0.4-0.4-0.7-0.4h-3.1v-1.1h3.1c0.4,0,0.8,0.1,1.2,0.3c0.3,0.2,0.6,0.5,0.8,0.9s0.3,0.8,0.3,1.3s-0.1,0.9-0.3,1.3
				s-0.4,0.7-0.8,0.9s-0.7,0.3-1.2,0.3L403.4,260.6L403.4,260.6z M407.6,264.2l-2-3.9l1.2-0.3l2.2,4.1L407.6,264.2L407.6,264.2z"/>
			<path d="M410.7,264.2v-8.5h1.2v8.5H410.7z M411.3,256.8v-1.1h4.8v1.1H411.3z M411.3,260.6v-1.1h4.1v1.1H411.3z"/>
			<path d="M418.7,255.6v8.5h-1.2v-8.5H418.7z"/>
			<path d="M420.9,264.2v-8.5h1.2v8.5H420.9z M421.7,264.2V263h1.9c0.6,0,1.1-0.2,1.5-0.5s0.5-0.8,0.5-1.4v-2.5
				c0-0.6-0.2-1.1-0.5-1.4s-0.8-0.5-1.5-0.5h-1.9v-1.1h1.9c1,0,1.8,0.3,2.4,0.8c0.6,0.5,0.8,1.3,0.8,2.3v2.4c0,1-0.3,1.7-0.8,2.3
				s-1.4,0.8-2.4,0.8L421.7,264.2L421.7,264.2z"/>
		</g>
	</g>
</g>
<g>
	<g>
		<g>
			<circle cx="415.2" cy="217.8" r="3.7"/>
		</g>
	</g>
	<g>
		<g>
			<path d="M446.3,245.8c7.8-7.3,12.2-17.2,12.2-27.9s-4.3-20.6-12.2-27.9c-0.9-0.8-2.3-0.8-3.1,0.1c-0.8,0.9-0.8,2.3,0.1,3.1
				c6.9,6.5,10.8,15.2,10.8,24.6c0,9.4-3.8,18.2-10.8,24.6c-0.5,0.4-0.7,1-0.7,1.6c0,0.5,0.2,1.1,0.6,1.5
				C444,246.6,445.4,246.6,446.3,245.8z"/>
		</g>
	</g>
	<g>
		<g>
			<path d="M437.1,237.6c5.4-5.4,8.4-12.4,8.4-19.7s-3-14.3-8.4-19.7c-0.9-0.9-2.3-0.9-3.1,0c-0.9,0.9-0.9,2.3,0,3.1
				c4.6,4.6,7.1,10.4,7.1,16.6c0,6.1-2.5,12-7.1,16.6c-0.4,0.4-0.7,1-0.7,1.6s0.2,1.1,0.6,1.6C434.8,238.5,436.2,238.5,437.1,237.6z
				"/>
		</g>
	</g>
	<g>
		<g>
			<path d="M427.8,228.7c2.9-2.9,4.7-7,4.7-10.8l0,0v-0.2l0,0c0-3.8-1.8-7.9-4.7-10.8c-0.9-0.9-2.3-0.9-3.1,0
				c-0.4,0.4-0.7,1-0.7,1.6s0.2,1.1,0.6,1.6c2,2.1,3.4,5.1,3.4,7.7l0,0v0.2l0,0c0,2.6-1.3,5.6-3.4,7.7c-0.9,0.9-0.9,2.3,0,3.1
				C425.6,229.6,427,229.6,427.8,228.7z"/>
		</g>
	</g>
	<g>
		<g>
			<path d="M384.2,189.9c-7.8,7.3-12.2,17.2-12.2,27.9s4.3,20.6,12.2,27.9c0.9,0.8,2.3,0.8,3.1-0.1c0.8-0.9,0.8-2.3-0.1-3.1
				c-6.9-6.5-10.8-15.2-10.8-24.6c0-9.4,3.8-18.2,10.8-24.6c0.5-0.4,0.7-1,0.7-1.6c0-0.5-0.2-1.1-0.6-1.5
				C386.5,189.1,385.1,189.1,384.2,189.9z"/>
		</g>
	</g>
	<g>
		<g>
			<path d="M393.4,198.1c-5.4,5.4-8.4,12.4-8.4,19.7s3,14.3,8.4,19.7c0.9,0.9,2.3,0.9,3.1,0c0.9-0.9,0.9-2.3,0-3.1
				c-4.6-4.6-7.1-10.4-7.1-16.6c0-6.1,2.5-12,7.1-16.6c0.4-0.4,0.7-1,0.7-1.6s-0.2-1.1-0.6-1.6C395.7,197.2,394.3,197.2,393.4,198.1
				z"/>
		</g>
	</g>
	<g>
		<g>
			<path d="M402.6,207c-2.9,2.9-4.7,7-4.7,10.8l0,0v0.2l0,0c0,3.8,1.8,7.9,4.7,10.8c0.9,0.9,2.3,0.9,3.1,0c0.4-0.4,0.7-1,0.7-1.6
				s-0.2-1.1-0.6-1.6c-2-2.1-3.4-5.1-3.4-7.7l0,0v-0.2l0,0c0-2.6,1.3-5.6,3.4-7.7c0.9-0.9,0.9-2.3,0-3.1
				C404.9,206.1,403.5,206.1,402.6,207z"/>
		</g>
	</g>
</g>
<g>
	<circle class="st3" cx="574.9" cy="73.8" r="4.3"/>
	<rect x="580.6" y="54.7" class="st3" width="65.2" height="38.3"/>
	<circle class="st3" cx="651.5" cy="73.8" r="4.3"/>
	<g>
		<g>
			<path d="M584.5,51.1c-0.6,0-1.1-0.1-1.6-0.4s-0.8-0.6-1-1.1s-0.4-1-0.4-1.7v-2.4c0-0.6,0.1-1.2,0.4-1.7c0.3-0.5,0.6-0.8,1-1.1
				s1-0.4,1.6-0.4s1.1,0.1,1.6,0.4s0.8,0.6,1,1.1s0.4,1,0.4,1.7v2.4c0,0.6-0.1,1.2-0.4,1.7c-0.3,0.5-0.6,0.8-1,1.1
				C585.7,51,585.1,51.1,584.5,51.1z M584.5,49.9c0.5,0,1-0.2,1.3-0.5s0.5-0.8,0.5-1.4v-2.5c0-0.6-0.2-1-0.5-1.4s-0.8-0.5-1.3-0.5
				s-1,0.2-1.3,0.5s-0.5,0.8-0.5,1.4V48c0,0.6,0.2,1,0.5,1.4S583.9,49.9,584.5,49.9z"/>
			<path d="M589.4,51v-8.5h1.1l4.2,6.5l-0.1,0.2v-6.7h1.2V51h-1.1l-4.2-6.4l0.1-0.2V51C590.6,51,589.4,51,589.4,51z"/>
		</g>
	</g>
	<g>
		<g>
			<path d="M628.6,51.1c-0.6,0-1.1-0.1-1.6-0.4s-0.8-0.6-1-1.1s-0.4-1-0.4-1.7v-2.4c0-0.6,0.1-1.2,0.4-1.7s0.6-0.8,1-1.1
				s1-0.4,1.6-0.4s1.1,0.1,1.6,0.4s0.8,0.6,1,1.1s0.4,1,0.4,1.7v2.4c0,0.6-0.1,1.2-0.4,1.7s-0.6,0.8-1,1.1S629.2,51.1,628.6,51.1z
				 M628.6,49.9c0.5,0,1-0.2,1.3-0.5s0.5-0.8,0.5-1.4v-2.5c0-0.6-0.2-1-0.5-1.4s-0.8-0.5-1.3-0.5s-1,0.2-1.3,0.5s-0.5,0.8-0.5,1.4
				V48c0,0.6,0.2,1,0.5,1.4C627.6,49.8,628.1,49.9,628.6,49.9z"/>
			<path d="M633.6,51v-8.5h1.2V51H633.6z M634.2,43.6v-1.1h4.8v1.1H634.2z M634.2,47.4v-1.1h4.1v1.1H634.2z"/>
			<path d="M640.3,51v-8.5h1.2V51H640.3z M640.9,43.6v-1.1h4.8v1.1H640.9z M640.9,47.4v-1.1h4.1v1.1H640.9z"/>
		</g>
	</g>
</g>
</svg>
