<?xml version="1.0" encoding="utf-8"?>
<!-- Generator: Adobe Illustrator 20.0.0, SVG Export Plug-In . SVG Version: 6.00 Build 0)  -->
<svg version="1.1" id="Ebene_1" xmlns="http://www.w3.org/2000/svg" xmlns:xlink="http://www.w3.org/1999/xlink" x="0px" y="0px"
	 viewBox="0 0 546.2 302.5" style="enable-background:new 0 0 546.2 302.5;" xml:space="preserve">
<style type="text/css">
	.st0{fill:none;stroke:#000000;stroke-width:1.000000e-02;}
	.st1{fill:none;stroke:#1D1D1B;stroke-width:0.9;}
	.st2{fill:none;stroke:#1D1D1B;stroke-width:1.5;}
	.st3{fill:none;stroke:#000000;stroke-width:0.9;}
	.st4{fill:none;stroke:#1D1D1B;stroke-width:1.000000e-02;}
</style>
<g transform="translate(22.5000185, 22.5000185) ">
	<polygon class="st0" points="-4.5,-4.5 12.5,-4.5 12.5,4 29.5,4 29.5,-4.5 40.9,-4.5 40.9,4 52.2,4 52.2,-4.5 63.5,-4.5 63.5,4 
		74.9,4 74.9,-4.5 86.2,-4.5 86.2,4 97.5,4 97.5,-4.5 108.9,-4.5 108.9,4 120.2,4 120.2,-4.5 131.6,-4.5 131.6,4 148.6,4 
		148.6,-4.5 165.6,-4.5 165.6,11.1 157.1,11.1 157.1,26.7 165.6,26.7 165.6,38 157.1,38 157.1,49.4 165.6,49.4 165.6,60.7 
		157.1,60.7 157.1,76.3 165.6,76.3 165.6,91.9 148.6,91.9 148.6,83.4 131.6,83.4 131.6,91.9 120.2,91.9 120.2,83.4 108.9,83.4 
		108.9,91.9 97.5,91.9 97.5,83.4 86.2,83.4 86.2,91.9 74.9,91.9 74.9,83.4 63.5,83.4 63.5,91.9 52.2,91.9 52.2,83.4 40.9,83.4 
		40.9,91.9 29.5,91.9 29.5,83.4 12.5,83.4 12.5,91.9 -4.5,91.9 -4.5,76.3 4,76.3 4,60.7 -4.5,60.7 -4.5,49.4 4,49.4 4,38 -4.5,38 
		-4.5,26.7 4,26.7 4,11.1 -4.5,11.1 	"/>
</g>
<g transform="translate(235.0986185, 22.5000185) ">
	<polygon class="st0" points="-47,-4.5 -30,-4.5 -30,4 -13,4 -13,-4.5 -1.7,-4.5 -1.7,4 9.7,4 9.7,-4.5 21,-4.5 21,4 32.4,4 
		32.4,-4.5 43.7,-4.5 43.7,4 55,4 55,-4.5 66.4,-4.5 66.4,4 77.7,4 77.7,-4.5 89,-4.5 89,4 106.1,4 106.1,-4.5 123.1,-4.5 
		123.1,11.1 114.6,11.1 114.6,26.7 123.1,26.7 123.1,38 114.6,38 114.6,49.4 123.1,49.4 123.1,60.7 114.6,60.7 114.6,76.3 
		123.1,76.3 123.1,91.9 106.1,91.9 106.1,83.4 89,83.4 89,91.9 77.7,91.9 77.7,83.4 66.4,83.4 66.4,91.9 55,91.9 55,83.4 43.7,83.4 
		43.7,91.9 32.4,91.9 32.4,83.4 21,83.4 21,91.9 9.7,91.9 9.7,83.4 -1.7,83.4 -1.7,91.9 -13,91.9 -13,83.4 -30,83.4 -30,91.9 
		-47,91.9 -47,76.3 -38.5,76.3 -38.5,60.7 -47,60.7 -47,49.4 -38.5,49.4 -38.5,38 -47,38 -47,26.7 -38.5,26.7 -38.5,11.1 -47,11.1 	
		"/>
</g>
<g transform="translate(447.69721849999996, 22.5000185) ">
	<polygon class="st0" points="-81,-4.5 -72.5,-4.5 -72.5,4 -55.5,4 -55.5,-4.5 -44.2,-4.5 -44.2,4 -32.8,4 -32.8,-4.5 -21.5,-4.5 
		-21.5,4 -10.2,4 -10.2,-4.5 1.2,-4.5 1.2,4 12.5,4 12.5,-4.5 23.8,-4.5 23.8,4 35.2,4 35.2,-4.5 46.5,-4.5 46.5,4 63.5,4 
		63.5,-4.5 72,-4.5 72,11.1 80.5,11.1 80.5,26.7 72,26.7 72,38 80.5,38 80.5,49.4 72,49.4 72,60.7 80.5,60.7 80.5,76.3 72,76.3 
		72,91.9 63.5,91.9 63.5,83.4 46.5,83.4 46.5,91.9 35.2,91.9 35.2,83.4 23.8,83.4 23.8,91.9 12.5,91.9 12.5,83.4 1.2,83.4 1.2,91.9 
		-10.2,91.9 -10.2,83.4 -21.5,83.4 -21.5,91.9 -32.8,91.9 -32.8,83.4 -44.2,83.4 -44.2,91.9 -55.5,91.9 -55.5,83.4 -72.5,83.4 
		-72.5,91.9 -81,91.9 -81,76.3 -89.5,76.3 -89.5,60.7 -81,60.7 -81,49.4 -89.5,49.4 -89.5,38 -81,38 -81,26.7 -89.5,26.7 
		-89.5,11.1 -81,11.1 	"/>
</g>
<g transform="translate(447.69721849999996, 142.9725585) ">
	<polygon class="st0" points="-81,-28.6 -72.5,-28.6 -72.5,-20.1 -55.5,-20.1 -55.5,-28.6 -44.2,-28.6 -44.2,-20.1 -32.8,-20.1 
		-32.8,-28.6 -21.5,-28.6 -21.5,-20.1 -10.2,-20.1 -10.2,-28.6 1.2,-28.6 1.2,-20.1 12.5,-20.1 12.5,-28.6 23.8,-28.6 23.8,-20.1 
		35.2,-20.1 35.2,-28.6 46.5,-28.6 46.5,-20.1 63.5,-20.1 63.5,-28.6 72,-28.6 72,-13 80.5,-13 80.5,2.6 72,2.6 72,13.9 80.5,13.9 
		80.5,25.3 72,25.3 72,36.6 80.5,36.6 80.5,52.2 72,52.2 72,67.8 63.5,67.8 63.5,59.3 46.5,59.3 46.5,67.8 35.2,67.8 35.2,59.3 
		23.8,59.3 23.8,67.8 12.5,67.8 12.5,59.3 1.2,59.3 1.2,67.8 -10.2,67.8 -10.2,59.3 -21.5,59.3 -21.5,67.8 -32.8,67.8 -32.8,59.3 
		-44.2,59.3 -44.2,67.8 -55.5,67.8 -55.5,59.3 -72.5,59.3 -72.5,67.8 -81,67.8 -81,52.2 -89.5,52.2 -89.5,36.6 -81,36.6 -81,25.3 
		-89.5,25.3 -89.5,13.9 -81,13.9 -81,2.6 -89.5,2.6 -89.5,-13 -81,-13 	"/>
</g>
<g transform="translate(22.5000185, 142.9725585) ">
	<polygon class="st0" points="4,-20.1 12.5,-20.1 12.5,-28.6 29.5,-28.6 29.5,-20.1 40.9,-20.1 40.9,-28.6 52.2,-28.6 52.2,-20.1 
		63.5,-20.1 63.5,-28.6 74.9,-28.6 74.9,-20.1 86.2,-20.1 86.2,-28.6 97.5,-28.6 97.5,-20.1 108.9,-20.1 108.9,-28.6 120.2,-28.6 
		120.2,-20.1 131.6,-20.1 131.6,-28.6 148.6,-28.6 148.6,-20.1 157.1,-20.1 157.1,-11.6 165.6,-11.6 165.6,5.4 157.1,5.4 
		157.1,16.8 165.6,16.8 165.6,28.1 157.1,28.1 157.1,39.4 165.6,39.4 165.6,50.8 157.1,50.8 157.1,62.1 165.6,62.1 165.6,73.5 
		157.1,73.5 157.1,84.8 165.6,84.8 165.6,96.1 157.1,96.1 157.1,107.5 165.6,107.5 165.6,124.5 157.1,124.5 157.1,133 148.6,133 
		148.6,141.5 131.6,141.5 131.6,133 120.2,133 120.2,141.5 108.9,141.5 108.9,133 97.5,133 97.5,141.5 86.2,141.5 86.2,133 
		74.9,133 74.9,141.5 63.5,141.5 63.5,133 52.2,133 52.2,141.5 40.9,141.5 40.9,133 29.5,133 29.5,141.5 12.5,141.5 12.5,133 4,133 
		4,124.5 -4.5,124.5 -4.5,107.5 4,107.5 4,96.1 -4.5,96.1 -4.5,84.8 4,84.8 4,73.5 -4.5,73.5 -4.5,62.1 4,62.1 4,50.8 -4.5,50.8 
		-4.5,39.4 4,39.4 4,28.1 -4.5,28.1 -4.5,16.8 4,16.8 4,5.4 -4.5,5.4 -4.5,-11.6 4,-11.6 	"/>
</g>
<g transform="translate(235.0986185, 142.9725585) ">
	<polygon class="st0" points="-38.5,-20.1 -30,-20.1 -30,-28.6 -13,-28.6 -13,-20.1 -1.7,-20.1 -1.7,-28.6 9.7,-28.6 9.7,-20.1 
		21,-20.1 21,-28.6 32.4,-28.6 32.4,-20.1 43.7,-20.1 43.7,-28.6 55,-28.6 55,-20.1 66.4,-20.1 66.4,-28.6 77.7,-28.6 77.7,-20.1 
		89,-20.1 89,-28.6 106.1,-28.6 106.1,-20.1 114.6,-20.1 114.6,-11.6 123.1,-11.6 123.1,5.4 114.6,5.4 114.6,16.8 123.1,16.8 
		123.1,28.1 114.6,28.1 114.6,39.4 123.1,39.4 123.1,50.8 114.6,50.8 114.6,62.1 123.1,62.1 123.1,73.5 114.6,73.5 114.6,84.8 
		123.1,84.8 123.1,96.1 114.6,96.1 114.6,107.5 123.1,107.5 123.1,124.5 114.6,124.5 114.6,133 106.1,133 106.1,141.5 89,141.5 
		89,133 77.7,133 77.7,141.5 66.4,141.5 66.4,133 55,133 55,141.5 43.7,141.5 43.7,133 32.4,133 32.4,141.5 21,141.5 21,133 
		9.7,133 9.7,141.5 -1.7,141.5 -1.7,133 -13,133 -13,141.5 -30,141.5 -30,133 -38.5,133 -38.5,124.5 -47,124.5 -47,107.5 
		-38.5,107.5 -38.5,96.1 -47,96.1 -47,84.8 -38.5,84.8 -38.5,73.5 -47,73.5 -47,62.1 -38.5,62.1 -38.5,50.8 -47,50.8 -47,39.4 
		-38.5,39.4 -38.5,28.1 -47,28.1 -47,16.8 -38.5,16.8 -38.5,5.4 -47,5.4 -47,-11.6 -38.5,-11.6 	"/>
</g>
<circle class="st0" cx="143.7" cy="149.8" r="2.8"/>
<circle class="st0" cx="143.7" cy="250.6" r="2.8"/>
<circle class="st0" cx="50.1" cy="149.8" r="2.8"/>
<circle class="st0" cx="50.1" cy="250.6" r="2.8"/>
<circle class="st0" cx="298.6" cy="142" r="7.1"/>
<path class="st1" d="M290.2,131.9"/>
<path class="st2" d="M292.1,132.6c1.7-1.5,4-2.5,6.6-2.5c2.5,0,4.8,0.9,6.6,2.5"/>
<path class="st3" d="M284.9,134.6"/>
<path class="st2" d="M290.2,130.5c2.3-2,5.2-3.2,8.5-3.2c3.1,0,6,1.1,8.2,3"/>
<g>
	<circle class="st0" cx="404.9" cy="68" r="4.3"/>
	<rect x="410.6" y="48.9" class="st0" width="65.2" height="38.3"/>
	<circle class="st0" cx="481.5" cy="68" r="4.3"/>
	<g>
		<g>
			<path d="M414.5,45.3c-0.6,0-1.1-0.1-1.6-0.4s-0.8-0.6-1-1.1s-0.4-1-0.4-1.7v-2.4c0-0.6,0.1-1.2,0.4-1.7s0.6-0.8,1-1.1
				s1-0.4,1.6-0.4s1.1,0.1,1.6,0.4s0.8,0.6,1,1.1s0.4,1,0.4,1.7v2.4c0,0.6-0.1,1.2-0.4,1.7s-0.6,0.8-1,1.1S415.1,45.3,414.5,45.3z
				 M414.5,44.1c0.5,0,1-0.2,1.3-0.5s0.5-0.8,0.5-1.4v-2.5c0-0.6-0.2-1-0.5-1.4s-0.8-0.5-1.3-0.5s-1,0.2-1.3,0.5s-0.5,0.8-0.5,1.4
				v2.5c0,0.6,0.2,1,0.5,1.4S413.9,44.1,414.5,44.1z"/>
			<path d="M419.4,45.2v-8.5h1.1l4.2,6.5l-0.1,0.2v-6.7h1.2v8.5h-1.1l-4.2-6.4l0.1-0.2v6.6C420.6,45.2,419.4,45.2,419.4,45.2z"/>
		</g>
	</g>
	<g>
		<g>
			<path d="M458.6,45.3c-0.6,0-1.1-0.1-1.6-0.4s-0.8-0.6-1-1.1s-0.4-1-0.4-1.7v-2.4c0-0.6,0.1-1.2,0.4-1.7s0.6-0.8,1-1.1
				s1-0.4,1.6-0.4s1.1,0.1,1.6,0.4s0.8,0.6,1,1.1s0.4,1,0.4,1.7v2.4c0,0.6-0.1,1.2-0.4,1.7s-0.6,0.8-1,1.1S459.2,45.3,458.6,45.3z
				 M458.6,44.1c0.5,0,1-0.2,1.3-0.5s0.5-0.8,0.5-1.4v-2.5c0-0.6-0.2-1-0.5-1.4s-0.8-0.5-1.3-0.5s-1,0.2-1.3,0.5s-0.5,0.8-0.5,1.4
				v2.5c0,0.6,0.2,1,0.5,1.4S458.1,44.1,458.6,44.1z"/>
			<path d="M463.6,45.2v-8.5h1.2v8.5H463.6z M464.2,37.8v-1.1h4.8v1.1H464.2z M464.2,41.6v-1.1h4.1v1.1H464.2z"/>
			<path d="M470.3,45.2v-8.5h1.2v8.5H470.3z M470.9,37.8v-1.1h4.8v1.1H470.9z M470.9,41.6v-1.1h4.1v1.1H470.9z"/>
		</g>
	</g>
</g>
<g>
	<rect x="67.6" y="53.9" width="70.9" height="14.2"/>
	<rect x="91" y="53.6" class="st4" width="24.1" height="9.9"/>
</g>
<rect x="213.7" y="191.9" class="st4" width="15" height="15"/>
<rect x="262.3" y="191.9" class="st4" width="15" height="15"/>
<rect x="310.9" y="191.9" class="st4" width="15" height="15"/>
</svg>
